<?xml version="1.0" encoding="utf-8"?>
<!-- Generator: Adobe Illustrator 18.0.0, SVG Export Plug-In . SVG Version: 6.00 Build 0)  -->
<!DOCTYPE svg PUBLIC "-//W3C//DTD SVG 1.1//EN" "http://www.w3.org/Graphics/SVG/1.1/DTD/svg11.dtd">
<svg version="1.1" id="Layer_1" xmlns="http://www.w3.org/2000/svg" xmlns:xlink="http://www.w3.org/1999/xlink" x="0px" y="0px"
	 viewBox="0 0 92.7 84.7" enable-background="new 0 0 92.7 84.7" xml:space="preserve">
<g>
	<path fill="#808080" d="M68.3,39.9c0.7,0,1.4-0.2,2-0.5c1.4-0.7,2.1-2.1,2.1-3.6c0-0.7-0.2-1.4-0.5-2l-15-26.1
		c-0.7-1.4-2.2-2.1-3.6-2.1c-0.7,0-1.4,0.2-2,0.5c-1.4,0.8-2.1,2.2-2.1,3.6c0,0.7,0.2,1.4,0.5,2l15,26.1
		C65.5,39.2,66.9,39.9,68.3,39.9L68.3,39.9z M68.3,39.9"/>
	<path fill="#808080" d="M23.4,39.4c0.6,0.4,1.3,0.5,2,0.5c1.5,0,2.9-0.8,3.6-2.1l15-26.1c0.3-0.6,0.5-1.3,0.5-2
		c0-1.5-0.8-2.8-2.1-3.6c-0.6-0.4-1.3-0.5-2-0.5c-1.5,0-2.9,0.8-3.6,2.1l-15,26.1c-0.4,0.6-0.5,1.3-0.5,2
		C21.3,37.3,22.1,38.7,23.4,39.4L23.4,39.4z M23.4,39.4"/>
	<path fill="#808080" d="M85.4,34.1h-9.4c0.7,3.3-0.7,6.9-3.9,8.7c-1.2,0.6-2.5,1-3.8,1c-2.9,0-5.5-1.6-7-4.1c0,0.1-3.2-5.5-3.2-5.5
		H35.6l-3.2,5.6c-1.4,2.5-4.1,4.1-6.9,4.1c-1.3,0-2.7-0.3-3.8-1c-1.9-1-3.2-2.7-3.8-4.8c-0.4-1.3-0.4-2.6-0.1-3.9H8.4
		c-2.3,0-4.1,1.8-4.1,4.1c0,2.3,1.9,4.1,4.1,4.1h1.3c0,0.2,0,0.4,0.1,0.6L18,73.8c0.7,2.6,3.5,4.7,6.1,4.7h1.4V80
		c0,0.8,0.9,1.5,2,1.5h11c1.1,0,2-0.7,2-1.5v-1.5h14.1V80c0,0.8,0.9,1.5,2,1.5h11c1.1,0,2-0.7,2-1.5v-1.5h0.2c2.7,0,5.5-2.1,6.1-4.7
		L84,43c0-0.2,0.1-0.4,0.1-0.6h1.3c2.3,0,4.1-1.9,4.1-4.1C89.6,35.9,87.7,34.1,85.4,34.1L85.4,34.1z M29.5,70c0,1.3-1.1,2.4-2.4,2.4
		c-1.3,0-2.4-1.1-2.4-2.4V52.2c0-1.3,1.1-2.4,2.4-2.4c1.3,0,2.4,1,2.4,2.4V70z M42.7,70c0,1.3-1.1,2.4-2.4,2.4
		C39,72.4,38,71.3,38,70V52.2c0-1.3,1.1-2.4,2.4-2.4c1.3,0,2.4,1,2.4,2.4V70z M55.8,70c0,1.3-1.1,2.4-2.4,2.4
		c-1.3,0-2.4-1.1-2.4-2.4V52.2c0-1.3,1.1-2.4,2.4-2.4c1.3,0,2.4,1,2.4,2.4V70z M69,70c0,1.3-1.1,2.4-2.4,2.4c-1.3,0-2.4-1.1-2.4-2.4
		V52.2c0-1.3,1.1-2.4,2.4-2.4c1.3,0,2.4,1,2.4,2.4V70z M69,70"/>
</g>
</svg>
