<?xml version="1.0" encoding="utf-8"?>
<!-- Generator: Adobe Illustrator 19.1.0, SVG Export Plug-In . SVG Version: 6.00 Build 0)  -->
<svg version="1.1" id="Layer_1" xmlns="http://www.w3.org/2000/svg" xmlns:xlink="http://www.w3.org/1999/xlink" x="0px" y="0px"
	 viewBox="0 0 93.5 99.2" style="enable-background:new 0 0 93.5 99.2;" xml:space="preserve">
<style type="text/css">
	.st0{fill:#FFFFFF;}
</style>
<g>
	<g>
		
			<rect x="74.7" y="1.4" transform="matrix(0.7287 0.6848 -0.6848 0.7287 30.8608 -51.7917)" class="st0" width="12.1" height="23.3"/>
		<rect x="6.5" y="74.2" transform="matrix(0.7287 0.6848 -0.6848 0.7287 62.0755 14.6459)" class="st0" width="12.1" height="23"/>
		<path class="st0" d="M88.6,48.5c0,23.6-19.3,42.4-43.2,42.4c-11.8,0-23.9-5.5-32-14.5C6.5,68.9,3.1,59.3,3.1,48.1
			C3.1,25.1,22.6,5.9,46,5.9C69.4,5.9,88.6,25.1,88.6,48.5z M15.4,49.2c0,16.4,13.7,30.1,30.4,30.1c16.8,0,30.3-13.6,30.3-30.8
			C76.2,31,63,17.6,45.7,17.6C28.5,17.6,15.4,31.2,15.4,49.2z"/>
	</g>
	<g>
		<path class="st0" d="M37.8,62.1V34.6l23.8,13.8L37.8,62.1z"/>
	</g>
</g>
</svg>
